<svg width="48" height="39" viewBox="0 0 48 39" fill="none" xmlns="http://www.w3.org/2000/svg">
<path d="M32.7361 6.30698C32.6251 6.19498 32.4871 6.11398 32.3381 6.06698L23.3631 3.24898C19.7741 2.12198 17.4391 4.08798 16.8101 4.71898C16.4431 5.08598 16.1621 5.47298 16.0181 5.80998L12.0201 15.214C11.7911 15.752 11.8691 16.469 12.2281 17.184C12.7421 18.205 13.6681 18.941 14.7751 19.206C16.0141 19.503 17.2991 19.1 18.3051 18.095C18.5681 17.832 18.7921 17.542 18.9241 17.296L20.2681 14.803C20.4891 14.39 20.8101 13.962 21.1481 13.624C22.3011 12.47 22.8491 12.998 23.0821 13.222C25.0931 15.163 35.6361 25.751 35.6361 25.751C36.0111 26.126 35.9331 26.837 35.4641 27.305C34.9961 27.772 34.2841 27.852 33.9101 27.479L30.9481 24.518C30.5661 24.135 29.9501 24.135 29.5681 24.518C29.1861 24.897 29.1861 25.516 29.5681 25.897L32.5301 28.86C32.9041 29.233 32.8261 29.944 32.3581 30.411C31.8901 30.88 31.1771 30.958 30.8051 30.585L27.8421 27.624C27.4601 27.242 26.8421 27.242 26.4621 27.624C26.0801 28.003 26.0801 28.622 26.4621 29.004L29.4241 31.966C29.7981 32.34 29.7171 33.051 29.2501 33.519C28.7831 33.986 28.0721 34.066 27.6971 33.691L24.7351 30.73C24.3551 30.349 23.7361 30.349 23.3551 30.73C22.9751 31.111 22.9751 31.73 23.3551 32.109L26.3171 35.072C26.6921 35.447 26.6121 36.158 26.1451 36.626C25.6751 37.094 24.9641 37.173 24.5911 36.799L20.9851 33.19C21.5001 32.416 21.3601 31.293 20.5961 30.526C19.7401 29.671 18.4231 29.592 17.6611 30.356C18.4231 29.593 18.3481 28.278 17.4901 27.421C16.6321 26.565 15.3181 26.486 14.5561 27.248C15.3181 26.486 15.2411 25.172 14.3821 24.316C13.5261 23.458 12.2121 23.38 11.4481 24.142C12.2121 23.38 12.1331 22.066 11.2761 21.207C10.4741 20.405 9.27907 20.296 8.50207 20.907L2.66307 15.068C2.28207 14.686 1.66307 14.686 1.28207 15.068C0.90207 15.448 0.90207 16.067 1.28207 16.449L7.10607 22.272L5.37907 23.999C4.61707 24.76 4.69407 26.074 5.55307 26.933C6.40907 27.789 7.72307 27.868 8.48607 27.105C7.72307 27.868 7.80107 29.181 8.65907 30.039C9.51507 30.894 10.8301 30.975 11.5931 30.212C10.8301 30.975 10.9071 32.288 11.7651 33.145C12.6231 34.003 13.9371 34.081 14.6991 33.319C13.9371 34.08 14.0141 35.393 14.8721 36.252C15.7291 37.108 17.0421 37.187 17.8061 36.424L19.6301 34.601L23.2111 38.181C24.3541 39.324 26.2871 39.244 27.5251 38.008C28.1281 37.405 28.4501 36.635 28.4951 35.873C29.2571 35.828 30.0281 35.505 30.6301 34.901C31.2341 34.298 31.5581 33.528 31.6041 32.766C32.3651 32.721 33.1331 32.399 33.7391 31.795C34.3421 31.191 34.6651 30.422 34.7091 29.659C35.4721 29.615 36.2421 29.293 36.8461 28.687C38.0821 27.451 38.1581 25.515 37.0181 24.374L35.5081 22.863L41.7081 16.664C42.0891 16.284 42.0891 15.665 41.7081 15.284L32.7361 6.30698Z" fill="#89C7F9"/>
<path d="M47.4301 8.489L39.5291 0.587997C38.7671 -0.175003 37.5301 -0.175003 36.7671 0.587997L34.0051 3.348C33.2431 4.11 33.2431 5.347 34.0051 6.109L41.9071 14.012C42.6701 14.774 43.9071 14.774 44.6691 14.012L47.4301 11.251C48.1911 10.488 48.1911 9.251 47.4301 8.489ZM43.2831 12.513C42.3991 12.513 41.6811 11.796 41.6811 10.911C41.6811 10.026 42.3991 9.308 43.2831 9.308C44.1681 9.308 44.8861 10.025 44.8861 10.911C44.8851 11.795 44.1681 12.513 43.2831 12.513Z" fill="#89C7F9"/>
</svg>
