<svg width="40" height="40" viewBox="0 0 40 40" fill="none" xmlns="http://www.w3.org/2000/svg">
<path d="M35.2857 32.8973C35.2946 32.8839 35.308 32.8705 35.317 32.8571C38.2411 29.3795 40 24.8973 40 20C40 15.1027 38.2411 10.6205 35.3214 7.14286C35.3125 7.12946 35.2991 7.12054 35.2902 7.10714C35.2411 7.04911 35.1964 6.99554 35.1473 6.94196C35.1295 6.91964 35.1116 6.90179 35.0938 6.87946L34.9107 6.66964L34.9063 6.66518C34.8393 6.58929 34.7679 6.51339 34.7009 6.4375L34.6964 6.43304C34.5536 6.28125 34.4107 6.12946 34.2634 5.98214L34.2589 5.97768L34.0446 5.76339L34.0312 5.75C33.9643 5.68304 33.8973 5.62054 33.8304 5.55804C33.808 5.53571 33.7857 5.51339 33.7589 5.49107C33.7143 5.44643 33.6696 5.40625 33.625 5.36607C33.6116 5.35268 33.5938 5.33929 33.5804 5.32143C30.0179 2.01786 25.2455 0 20 0C14.7545 0 9.98214 2.01786 6.41518 5.32143C6.40179 5.33482 6.38393 5.34821 6.37054 5.36607C6.32589 5.40625 6.28125 5.45089 6.23661 5.49554C6.21429 5.51786 6.19196 5.54018 6.16518 5.5625C6.09821 5.625 6.03125 5.69196 5.96429 5.75446L5.95089 5.76786L5.73661 5.98214L5.73214 5.98661C5.58482 6.13393 5.44196 6.28571 5.29911 6.4375L5.29464 6.44196C5.22321 6.51786 5.15625 6.59375 5.08929 6.66964L5.08482 6.67411C5.02232 6.74107 4.95982 6.8125 4.90179 6.88393C4.88393 6.90625 4.86607 6.92411 4.84821 6.94643C4.79911 7 4.75446 7.05804 4.70536 7.11161C4.69643 7.125 4.68304 7.13393 4.67411 7.14732C1.75893 10.6205 0 15.1027 0 20C0 24.8973 1.75893 29.3795 4.67857 32.8571C4.6875 32.8705 4.70089 32.8839 4.70982 32.8973L4.84821 33.0625C4.86607 33.0848 4.88393 33.1027 4.90179 33.125L5.08482 33.3348C5.08482 33.3393 5.08929 33.3393 5.08929 33.3438C5.15625 33.4196 5.22321 33.4955 5.29464 33.567L5.29911 33.5714C5.44196 33.7232 5.58482 33.875 5.72768 34.0223L5.73214 34.0268C5.80357 34.0982 5.87054 34.1696 5.94196 34.2366L5.95536 34.25C6.10268 34.3973 6.25446 34.5402 6.40625 34.6786C9.98214 37.9821 14.7545 40 20 40C25.2455 40 30.0179 37.9821 33.5848 34.6786C33.7369 34.5392 33.8858 34.3963 34.0312 34.25L34.0446 34.2366C34.1161 34.1652 34.1875 34.0982 34.2545 34.0268L34.2589 34.0223C34.4063 33.875 34.5491 33.7232 34.6875 33.5714L34.692 33.567C34.7589 33.4911 34.8304 33.4196 34.8973 33.3438C34.8973 33.3393 34.9018 33.3393 34.9018 33.3348C34.9643 33.2679 35.0268 33.1964 35.0848 33.125C35.1027 33.1027 35.1205 33.0848 35.1384 33.0625C35.1889 33.0087 35.238 32.9536 35.2857 32.8973ZM35.4688 26.5312C34.8527 27.9866 34.0402 29.3348 33.0491 30.558C31.9329 29.5934 30.7126 28.7564 29.4107 28.0625C29.9286 25.9688 30.25 23.6696 30.3348 21.25H36.7411C36.6071 23.0759 36.1786 24.8482 35.4688 26.5312ZM36.7411 18.75H30.3348C30.25 16.3304 29.9286 14.0312 29.4107 11.9375C30.7188 11.2411 31.9375 10.4018 33.0491 9.44196C35.2034 12.0936 36.4921 15.3426 36.7411 18.75ZM26.5312 4.53125C28.3036 5.28125 29.9152 6.31696 31.3348 7.62054C30.5101 8.32274 29.6224 8.9474 28.683 9.48661C27.9821 7.47768 27.0848 5.73214 26.0402 4.33482C26.2054 4.39732 26.3705 4.46429 26.5312 4.53125ZM22.4866 35.808C22.0759 36.1295 21.6652 36.375 21.25 36.5402V28.2589C23.0214 28.3825 24.7634 28.777 26.4152 29.4286C26.0446 30.5268 25.6161 31.5402 25.1205 32.4554C24.3438 33.9018 23.433 35.058 22.4866 35.808ZM25.1205 7.54464C25.6116 8.46429 26.0446 9.47768 26.4152 10.5714C24.7634 11.223 23.0214 11.6175 21.25 11.7411V3.46429C21.6607 3.62946 22.0759 3.87054 22.4866 4.19643C23.433 4.94196 24.3438 6.09821 25.1205 7.54464ZM21.25 25.7545V21.25H27.8348C27.7634 23.2232 27.5179 25.1384 27.1071 26.9554L27.0938 27.0089C25.2202 26.2985 23.25 25.8755 21.25 25.7545ZM21.25 18.75V14.2455C23.2946 14.1205 25.2589 13.6875 27.0938 12.9911L27.1071 13.0446C27.5179 14.8616 27.7634 16.7723 27.8348 18.75H21.25ZM18.75 21.25V25.7545C16.7054 25.8795 14.7411 26.3125 12.9063 27.0089L12.8929 26.9554C12.4821 25.1384 12.2366 23.2277 12.1652 21.25H18.75ZM12.1652 18.75C12.2366 16.7768 12.4821 14.8616 12.8929 13.0446L12.9063 12.9911C14.7411 13.6875 16.7009 14.1205 18.75 14.2455V18.75H12.1652ZM18.75 28.2589V36.5357C18.3393 36.3705 17.9241 36.1295 17.5134 35.8036C16.567 35.058 15.6518 33.8973 14.875 32.4509C14.3839 31.5313 13.9509 30.5179 13.5804 29.4241C15.2411 28.7723 16.9688 28.3839 18.75 28.2589ZM18.75 11.7411C16.9786 11.6175 15.2366 11.223 13.5848 10.5714C13.9554 9.47321 14.3839 8.45982 14.8795 7.54464C15.6562 6.09821 16.567 4.9375 17.5179 4.19196C17.9286 3.87054 18.3393 3.625 18.7545 3.45982V11.7411H18.75ZM13.4688 4.53125C13.6339 4.46429 13.7946 4.39732 13.9598 4.33482C12.9152 5.73214 12.0179 7.47768 11.317 9.48661C10.3795 8.95089 9.49107 8.32589 8.66518 7.62054C10.0848 6.31696 11.6964 5.28125 13.4688 4.53125ZM4.53125 13.4688C5.14732 12.0134 5.95982 10.6652 6.95089 9.44196C8.0625 10.4018 9.28125 11.2411 10.5893 11.9375C10.0714 14.0312 9.75 16.3304 9.66518 18.75H3.25893C3.39286 16.9241 3.82143 15.1518 4.53125 13.4688ZM3.25893 21.25H9.66518C9.75 23.6696 10.0714 25.9688 10.5893 28.0625C9.28741 28.7564 8.06706 29.5934 6.95089 30.558C4.79656 27.9064 3.50789 24.6574 3.25893 21.25ZM13.4688 35.4688C11.6964 34.7188 10.0848 33.683 8.66518 32.3795C9.49107 31.6741 10.3795 31.0536 11.317 30.5134C12.0179 32.5223 12.9152 34.2679 13.9598 35.6652C13.7946 35.6027 13.6295 35.5357 13.4688 35.4688ZM26.5312 35.4688C26.3661 35.5357 26.2054 35.6027 26.0402 35.6652C27.0848 34.2679 27.9821 32.5223 28.683 30.5134C29.6205 31.0491 30.5089 31.6741 31.3348 32.3795C29.923 33.6776 28.2981 34.7227 26.5312 35.4688Z" fill="#89C7F9"/>
</svg>
